<svg width="40" height="40" viewBox="0 0 40 40" fill="none" xmlns="http://www.w3.org/2000/svg">
<path d="M6.66666 16.6667L5.48833 17.845L4.31 16.6667L5.48833 15.4884L6.66666 16.6667ZM35 30C35 30.4421 34.8244 30.866 34.5118 31.1785C34.1993 31.4911 33.7754 31.6667 33.3333 31.6667C32.8913 31.6667 32.4674 31.4911 32.1548 31.1785C31.8423 30.866 31.6667 30.4421 31.6667 30H35ZM13.8217 26.1784L5.48833 17.845L7.845 15.4884L16.1783 23.8217L13.8217 26.1784ZM5.48833 15.4884L13.8217 7.15503L16.1783 9.5117L7.845 17.845L5.48833 15.4884ZM6.66666 15H23.3333V18.3334H6.66666V15ZM35 26.6667V30H31.6667V26.6667H35ZM23.3333 15C26.4275 15 29.395 16.2292 31.5829 18.4171C33.7708 20.605 35 23.5725 35 26.6667H31.6667C31.6667 24.4566 30.7887 22.3369 29.2259 20.7741C27.6631 19.2113 25.5435 18.3334 23.3333 18.3334V15Z" fill="#DDE0ED"/>
</svg>
