<svg width="30" height="30" viewBox="0 0 30 30" fill="none" xmlns="http://www.w3.org/2000/svg">
<path d="M5.15625 1.875H24.8438C26.655 1.875 28.125 3.345 28.125 5.15625V24.8438C28.125 25.714 27.7793 26.5486 27.1639 27.1639C26.5486 27.7793 25.714 28.125 24.8438 28.125H5.15625C4.28601 28.125 3.45141 27.7793 2.83606 27.1639C2.2207 26.5486 1.875 25.714 1.875 24.8438V5.15625C1.875 3.345 3.345 1.875 5.15625 1.875ZM4.6875 5.15625V24.8438C4.6875 25.1025 4.8975 25.3125 5.15625 25.3125H24.8438C24.9681 25.3125 25.0873 25.2631 25.1752 25.1752C25.2631 25.0873 25.3125 24.9681 25.3125 24.8438V5.15625C25.3125 5.03193 25.2631 4.9127 25.1752 4.82479C25.0873 4.73689 24.9681 4.6875 24.8438 4.6875H5.15625C5.03193 4.6875 4.9127 4.73689 4.82479 4.82479C4.73689 4.9127 4.6875 5.03193 4.6875 5.15625ZM22.0875 11.775L13.65 20.2125C13.3863 20.4758 13.0289 20.6238 12.6562 20.6238C12.2836 20.6238 11.9262 20.4758 11.6625 20.2125L7.9125 16.4625C7.66423 16.1958 7.52904 15.8432 7.53533 15.4788C7.54163 15.1145 7.68892 14.7668 7.94625 14.5087C8.20426 14.2514 8.55197 14.1041 8.91632 14.0978C9.28066 14.0915 9.63326 14.2267 9.9 14.475L12.6562 17.2312L20.1 9.7875C20.3667 9.53923 20.7193 9.40404 21.0837 9.41033C21.448 9.41663 21.7957 9.56392 22.0538 9.82125C22.3111 10.0793 22.4584 10.427 22.4647 10.7913C22.471 11.1557 22.3358 11.5083 22.0875 11.775Z" fill="#FFDCE9"/>
</svg>
