<svg width="20" height="20" viewBox="0 0 20 20" fill="none" xmlns="http://www.w3.org/2000/svg">
<path d="M3.4375 1.25H16.5625C17.77 1.25 18.75 2.23 18.75 3.4375V16.5625C18.75 17.1427 18.5195 17.6991 18.1093 18.1093C17.6991 18.5195 17.1427 18.75 16.5625 18.75H3.4375C2.85734 18.75 2.30094 18.5195 1.8907 18.1093C1.48047 17.6991 1.25 17.1427 1.25 16.5625V3.4375C1.25 2.23 2.23 1.25 3.4375 1.25ZM3.125 3.4375V16.5625C3.125 16.735 3.265 16.875 3.4375 16.875H16.5625C16.6454 16.875 16.7249 16.8421 16.7835 16.7835C16.8421 16.7249 16.875 16.6454 16.875 16.5625V3.4375C16.875 3.35462 16.8421 3.27513 16.7835 3.21653C16.7249 3.15792 16.6454 3.125 16.5625 3.125H3.4375C3.35462 3.125 3.27513 3.15792 3.21653 3.21653C3.15792 3.27513 3.125 3.35462 3.125 3.4375Z" fill="black"/>
<circle cx="10" cy="10" r="3" fill="#000"/>
</svg>
