<svg width="35" height="35" viewBox="0 0 35 35" fill="none" xmlns="http://www.w3.org/2000/svg">
<path d="M10.2083 13.125V10.2083H30.625V13.125H10.2083ZM10.2083 18.9583V16.0417H30.625V18.9583H10.2083ZM10.2083 24.7917V21.875H30.625V24.7917H10.2083ZM5.83333 13.125C5.42014 13.125 5.07403 12.985 4.795 12.705C4.51597 12.425 4.37597 12.0789 4.375 11.6667C4.375 11.2535 4.515 10.9074 4.795 10.6283C5.075 10.3493 5.42111 10.2093 5.83333 10.2083C6.24653 10.2083 6.59312 10.3483 6.87312 10.6283C7.15312 10.9083 7.29264 11.2545 7.29167 11.6667C7.29167 12.0799 7.15167 12.4265 6.87167 12.7065C6.59167 12.9865 6.24556 13.126 5.83333 13.125ZM5.83333 18.9583C5.42014 18.9583 5.07403 18.8183 4.795 18.5383C4.51597 18.2583 4.37597 17.9122 4.375 17.5C4.375 17.0868 4.515 16.7407 4.795 16.4617C5.075 16.1826 5.42111 16.0426 5.83333 16.0417C6.24653 16.0417 6.59312 16.1817 6.87312 16.4617C7.15312 16.7417 7.29264 17.0878 7.29167 17.5C7.29167 17.9132 7.15167 18.2598 6.87167 18.5398C6.59167 18.8198 6.24556 18.9593 5.83333 18.9583ZM5.83333 24.7917C5.42014 24.7917 5.07403 24.6517 4.795 24.3717C4.51597 24.0917 4.37597 23.7456 4.375 23.3333C4.375 22.9201 4.515 22.574 4.795 22.295C5.075 22.016 5.42111 21.876 5.83333 21.875C6.24653 21.875 6.59312 22.015 6.87312 22.295C7.15312 22.575 7.29264 22.9211 7.29167 23.3333C7.29167 23.7465 7.15167 24.0931 6.87167 24.3731C6.59167 24.6531 6.24556 24.7926 5.83333 24.7917Z" fill="#8A374E"/>
</svg>
