<svg width="35" height="35" viewBox="0 0 35 35" fill="none" xmlns="http://www.w3.org/2000/svg">
<path d="M15.3125 23.4216L9.84375 17.9517L11.3892 16.4062L15.3125 20.3284L23.6086 12.0312L25.1562 13.5789L15.3125 23.4216Z" fill="#FFDCE9"/>
<path d="M17.5 2.1875C14.4715 2.1875 11.511 3.08556 8.99284 4.76812C6.47471 6.45068 4.51207 8.84217 3.3531 11.6402C2.19413 14.4382 1.8909 17.517 2.48173 20.4873C3.07257 23.4577 4.53094 26.1861 6.67243 28.3276C8.81393 30.4691 11.5424 31.9274 14.5127 32.5183C17.483 33.1091 20.5619 32.8059 23.3598 31.6469C26.1578 30.4879 28.5493 28.5253 30.2319 26.0072C31.9144 23.489 32.8125 20.5285 32.8125 17.5C32.8125 13.4389 31.1992 9.54408 28.3276 6.67243C25.4559 3.80078 21.5611 2.1875 17.5 2.1875ZM17.5 30.625C14.9041 30.625 12.3665 29.8552 10.2081 28.413C8.04975 26.9708 6.36749 24.921 5.37409 22.5227C4.38069 20.1244 4.12077 17.4854 4.6272 14.9394C5.13363 12.3934 6.38367 10.0548 8.21923 8.21922C10.0548 6.38366 12.3934 5.13362 14.9394 4.62719C17.4854 4.12076 20.1244 4.38068 22.5227 5.37408C24.921 6.36748 26.9708 8.04975 28.413 10.2081C29.8552 12.3665 30.625 14.9041 30.625 17.5C30.625 20.981 29.2422 24.3194 26.7808 26.7808C24.3194 29.2422 20.981 30.625 17.5 30.625Z" fill="#FFDCE9"/>
</svg>
